<?xml version="1.0" standalone="no"?>
<!DOCTYPE svg PUBLIC "-//W3C//DTD SVG 20010904//EN"
 "http://www.w3.org/TR/2001/REC-SVG-20010904/DTD/svg10.dtd">
<svg version="1.0" xmlns="http://www.w3.org/2000/svg"
 width="222.000000pt" height="200.000000pt" viewBox="0 0 222.000000 200.000000"
 preserveAspectRatio="xMidYMid meet">

<g transform="translate(0.000000,200.000000) scale(0.100000,-0.100000)"
fill="#000000" stroke="none">
<path d="M1305 1918 c-16 -24 -22 -38 -14 -31 15 12 53 73 46 73 -2 0 -17 -19
-32 -42z"/>
<path d="M826 1895 c-3 -9 -6 -22 -5 -28 0 -7 5 -1 10 12 5 13 8 26 5 28 -2 2
-6 -3 -10 -12z"/>
<path d="M1050 1879 c-72 -33 -110 -64 -110 -88 1 -9 7 -4 16 12 11 20 38 39
90 63 41 18 74 36 74 39 0 6 6 9 -70 -26z"/>
<path d="M1194 1885 c26 -13 64 -38 83 -57 26 -24 33 -27 24 -11 -6 12 -16 25
-21 28 -6 4 -7 11 -4 17 4 6 3 8 -3 5 -5 -3 -32 5 -59 18 -27 14 -53 24 -59
24 -5 0 12 -11 39 -24z"/>
<path d="M525 1894 c6 -5 26 -23 45 -39 l35 -30 -25 28 c-14 16 -34 33 -45 39
-11 6 -15 6 -10 2z"/>
<path d="M901 1895 c1 -19 18 -51 18 -35 0 8 -4 22 -9 30 -5 8 -9 11 -9 5z"/>
<path d="M1352 1870 c0 -14 2 -19 5 -12 2 6 2 18 0 25 -3 6 -5 1 -5 -13z"/>
<path d="M872 1827 c-2 -54 -17 -87 -39 -87 -4 0 -18 15 -31 34 -12 18 -35 44
-49 57 -17 15 -11 5 13 -26 23 -27 45 -58 51 -68 9 -17 13 -15 52 17 24 20 47
36 52 36 5 0 9 10 8 23 0 22 0 22 -9 1 -4 -12 -15 -24 -24 -27 -12 -5 -16 4
-19 46 l-3 52 -2 -58z"/>
<path d="M1430 1865 c-11 -13 -15 -13 -21 -3 -5 8 -8 -7 -7 -37 1 -33 2 -40 5
-20 3 17 14 40 26 53 11 12 18 22 15 22 -3 0 -11 -7 -18 -15z"/>
<path d="M525 1847 c10 -15 25 -32 34 -36 9 -5 12 -13 8 -18 -5 -4 -24 9 -43
29 -35 38 -48 40 -16 3 38 -45 49 -49 79 -25 25 20 25 22 6 16 -18 -6 -30 0
-54 26 -28 29 -29 30 -14 5z"/>
<path d="M765 1851 c17 -10 43 -33 58 -50 32 -38 35 -34 7 11 -11 18 -20 29
-20 25 0 -5 -12 1 -26 12 -15 12 -32 21 -38 21 -6 0 3 -8 19 -19z"/>
<path d="M706 1837 c3 -10 9 -15 12 -12 3 3 0 11 -7 18 -10 9 -11 8 -5 -6z"/>
<path d="M1504 1828 l-19 -23 23 19 c21 18 27 26 19 26 -2 0 -12 -10 -23 -22z"/>
<path d="M475 1810 c10 -11 20 -20 23 -20 3 0 -3 9 -13 20 -10 11 -20 20 -23
20 -3 0 3 -9 13 -20z"/>
<path d="M628 1823 c7 -3 16 -2 19 1 4 3 -2 6 -13 5 -11 0 -14 -3 -6 -6z"/>
<path d="M715 1800 c3 -5 8 -10 11 -10 2 0 4 5 4 10 0 6 -5 10 -11 10 -5 0 -7
-4 -4 -10z"/>
<path d="M1214 1778 c-19 -23 -19 -23 1 -6 11 9 31 18 45 21 l25 4 -26 2 c-16
0 -33 -8 -45 -21z"/>
<path d="M1469 1783 c-13 -16 -12 -17 4 -4 9 7 17 15 17 17 0 8 -8 3 -21 -13z"/>
<path d="M1828 1793 c6 -2 18 -2 25 0 6 3 1 5 -13 5 -14 0 -19 -2 -12 -5z"/>
<path d="M326 1781 c-9 -14 15 -71 34 -81 23 -12 80 -13 98 -1 8 5 -6 6 -35 4
-40 -4 -51 -1 -67 16 -10 11 -18 32 -18 46 0 27 -3 31 -12 16z"/>
<path d="M483 1772 c10 -10 14 -22 10 -26 -4 -4 0 -4 10 0 16 6 16 8 -4 25
-28 24 -37 25 -16 1z"/>
<path d="M1314 1769 c60 -47 94 -175 62 -236 -20 -39 -66 -73 -110 -80 -43 -7
-53 9 -27 46 23 31 27 46 11 36 -5 -3 -10 1 -10 10 0 28 -31 71 -64 90 l-31
17 29 -24 c20 -17 25 -27 18 -32 -7 -4 -12 -2 -12 4 0 8 -6 8 -20 0 -11 -6
-20 -20 -20 -32 0 -17 -3 -18 -14 -8 -8 6 -12 19 -10 28 5 14 2 13 -10 -2 -9
-11 -16 -29 -15 -40 1 -18 2 -17 9 4 6 21 8 22 15 8 9 -23 42 -33 60 -18 10 8
15 9 15 2 0 -18 -40 -34 -67 -27 -16 4 -22 2 -18 -5 18 -29 105 14 105 52 0 9
-3 9 -10 -2 -8 -12 -10 -11 -10 7 0 58 41 20 42 -39 1 -44 -23 -58 -99 -58
-53 0 -68 4 -86 23 -13 12 -27 23 -31 23 -4 1 -29 19 -55 40 -27 22 -38 28
-26 14 27 -33 42 -46 94 -81 38 -24 55 -29 108 -29 59 0 63 -1 63 -23 0 -13
-9 -32 -20 -42 -40 -36 -183 7 -220 67 -11 18 -20 28 -20 23 0 -18 31 -56 64
-77 l31 -20 -48 5 c-39 4 -56 12 -95 49 -26 25 -54 47 -61 49 -11 4 -11 9 -1
26 11 18 10 24 -9 44 -21 23 -21 24 -4 37 16 12 19 10 23 -15 l6 -28 5 27 c7
33 -10 42 -39 22 -11 -8 -28 -11 -36 -8 -9 3 -23 1 -31 -6 -8 -7 -23 -9 -32
-6 -15 5 -15 4 1 -9 11 -8 14 -15 8 -15 -7 0 3 -16 23 -36 20 -20 42 -33 50
-30 7 2 19 -2 25 -10 9 -10 9 -14 1 -14 -6 0 -11 -9 -11 -21 0 -14 5 -19 14
-16 11 4 16 -4 19 -31 2 -20 3 -14 1 15 -3 57 11 63 40 17 27 -40 66 -53 180
-58 97 -5 109 -3 126 14 11 11 20 29 20 39 0 17 5 19 33 14 22 -3 46 1 67 12
l33 17 -6 -31 c-4 -17 -14 -42 -23 -57 -22 -32 -95 -83 -132 -90 -38 -8 -110
12 -149 42 l-32 24 -26 -22 c-14 -12 -25 -26 -25 -32 0 -5 12 2 28 16 l27 27
27 -24 c31 -26 124 -51 159 -42 44 12 123 80 144 124 11 25 27 44 40 46 18 4
18 4 -2 6 -29 1 -29 12 2 57 29 42 32 96 10 158 -15 44 -13 53 19 66 15 6 16
9 5 9 -9 1 -22 -6 -29 -14 -11 -13 -14 -13 -26 2 -7 10 -14 27 -14 38 0 17 -2
17 -10 5 -6 -10 -10 -11 -10 -2 0 6 -7 12 -16 12 -12 0 -9 -6 10 -21z m-134
-199 c0 -11 -7 -20 -15 -20 -8 0 -15 9 -15 20 0 11 7 20 15 20 8 0 15 -9 15
-20z"/>
<path d="M1534 1768 c-19 -23 -19 -23 1 -7 11 9 27 19 35 22 13 5 13 6 -1 6
-9 1 -24 -9 -35 -21z"/>
<path d="M1630 1786 c0 -2 7 -7 16 -10 8 -3 12 -2 9 4 -6 10 -25 14 -25 6z"/>
<path d="M755 1760 c10 -11 20 -20 23 -20 3 0 -3 9 -13 20 -10 11 -20 20 -23
20 -3 0 3 -9 13 -20z"/>
<path d="M1030 1760 c-11 -8 -7 -9 15 -4 37 8 45 14 19 14 -10 0 -26 -5 -34
-10z"/>
<path d="M1137 1759 c7 -7 15 -10 18 -7 3 3 -2 9 -12 12 -14 6 -15 5 -6 -5z"/>
<path d="M538 1753 c7 -3 16 -2 19 1 4 3 -2 6 -13 5 -11 0 -14 -3 -6 -6z"/>
<path d="M940 1751 c0 -6 4 -13 10 -16 6 -3 7 1 4 9 -7 18 -14 21 -14 7z"/>
<path d="M1445 1749 c-4 -6 2 -20 13 -32 12 -12 25 -33 31 -47 6 -16 10 -19
10 -8 1 9 -11 30 -25 47 -14 17 -23 35 -19 41 3 5 4 10 1 10 -3 0 -8 -5 -11
-11z"/>
<path d="M966 1716 c-20 -19 -33 -37 -29 -39 5 -2 23 14 42 35 41 47 36 49
-13 4z"/>
<path d="M1067 1723 c-20 -16 -39 -35 -42 -43 -3 -8 9 -1 27 16 18 17 42 36
53 42 11 6 15 12 9 12 -6 0 -27 -12 -47 -27z"/>
<path d="M1218 1730 c18 -11 41 -34 52 -52 12 -20 20 -26 20 -17 0 19 -73 89
-93 89 -6 0 3 -9 21 -20z"/>
<path d="M593 1733 c9 -2 23 -2 30 0 6 3 -1 5 -18 5 -16 0 -22 -2 -12 -5z"/>
<path d="M403 1723 c9 -2 23 -2 30 0 6 3 -1 5 -18 5 -16 0 -22 -2 -12 -5z"/>
<path d="M540 1715 c-7 -9 -11 -17 -9 -20 3 -2 10 5 17 15 14 24 10 26 -8 5z"/>
<path d="M670 1713 l35 -15 -27 -10 c-16 -5 -28 -14 -28 -18 0 -5 12 -2 28 6
15 7 34 14 42 14 8 0 -2 9 -23 20 -20 11 -43 20 -49 20 -7 -1 3 -8 22 -17z"/>
<path d="M790 1710 c6 -11 9 -24 6 -29 -3 -4 6 -13 20 -20 31 -14 31 -14 31 3
0 8 -6 12 -13 9 -7 -2 -20 9 -29 26 -8 17 -18 31 -21 31 -2 0 0 -9 6 -20z"/>
<path d="M1729 1713 c-12 -16 -12 -17 2 -6 9 7 19 10 22 6 4 -3 7 -1 7 5 0 17
-16 15 -31 -5z"/>
<path d="M1163 1693 c28 -3 40 -10 46 -27 5 -12 16 -28 25 -35 9 -7 16 -21 17
-30 0 -11 2 -12 6 -3 3 7 -3 22 -13 33 -9 10 -22 29 -28 42 -9 17 -21 22 -51
23 l-40 1 38 -4z"/>
<path d="M1667 1673 c-12 -15 -35 -40 -52 -57 -16 -16 -21 -23 -10 -16 35 25
107 100 96 100 -6 0 -21 -12 -34 -27z"/>
<path d="M758 1683 c7 -3 16 -2 19 1 4 3 -2 6 -13 5 -11 0 -14 -3 -6 -6z"/>
<path d="M1920 1679 c0 -5 5 -7 10 -4 6 3 10 8 10 11 0 2 -4 4 -10 4 -5 0 -10
-5 -10 -11z"/>
<path d="M378 1673 c7 -3 16 -2 19 1 4 3 -2 6 -13 5 -11 0 -14 -3 -6 -6z"/>
<path d="M1064 1648 l-29 -33 33 29 c17 17 32 31 32 33 0 8 -8 1 -36 -29z"/>
<path d="M363 1628 c22 -21 44 -38 51 -38 6 0 -1 7 -14 17 -14 9 -37 26 -51
37 -14 12 -7 4 14 -16z"/>
<path d="M875 1650 c-10 -11 -16 -22 -14 -24 2 -2 12 7 22 20 22 29 17 32 -8
4z"/>
<path d="M1730 1663 c8 -3 22 -11 30 -17 13 -10 13 -9 1 7 -7 9 -21 17 -30 16
-13 0 -14 -1 -1 -6z"/>
<path d="M464 1633 c32 -36 27 -58 -13 -49 l-26 6 24 -14 c24 -13 24 -14 4
-20 -27 -9 -71 9 -108 42 l-30 27 30 -33 c16 -18 40 -35 54 -39 l24 -6 -24
-13 c-30 -16 -46 -12 -110 32 -28 19 -61 34 -73 33 -18 -1 -18 -2 5 -9 39 -11
79 -40 79 -57 0 -8 -19 -23 -42 -33 -24 -11 -36 -20 -28 -20 8 0 30 9 48 20
18 11 42 20 55 20 16 0 19 -3 8 -9 -8 -5 5 -7 34 -3 38 4 46 2 40 -8 -6 -10
-1 -12 19 -8 26 5 26 5 10 -13 -9 -11 -13 -19 -8 -19 5 0 15 9 22 21 12 19 15
20 31 5 10 -9 23 -33 29 -54 9 -28 22 -44 50 -60 l38 -21 57 45 c72 56 75 68
4 14 -30 -22 -61 -40 -69 -40 -24 0 -65 37 -72 67 -4 14 -16 38 -27 51 -41 53
-7 125 65 137 17 2 42 6 56 8 17 3 12 5 -13 6 -21 0 -54 -6 -74 -14 -36 -15
-37 -15 -67 12 l-31 28 29 -32z m6 -108 c0 -16 -12 -18 -49 -8 -23 6 -23 7 -5
14 31 12 54 10 54 -6z"/>
<path d="M931 1644 c0 -11 3 -14 6 -6 3 7 2 16 -1 19 -3 4 -6 -2 -5 -13z"/>
<path d="M1115 1650 c-3 -5 -2 -10 4 -10 5 0 13 5 16 10 3 6 2 10 -4 10 -5 0
-13 -4 -16 -10z"/>
<path d="M1806 1651 c-3 -4 6 -6 19 -3 14 2 25 6 25 8 0 8 -39 4 -44 -5z"/>
<path d="M650 1639 c0 -5 5 -9 10 -9 6 0 10 -6 10 -14 0 -22 17 -28 22 -8 3
12 -3 22 -18 29 -13 6 -24 7 -24 2z"/>
<path d="M1564 1630 c-5 -5 -22 -11 -37 -12 -18 -2 -27 -8 -27 -20 0 -10 -4
-18 -10 -18 -5 0 -7 -6 -4 -14 3 -8 -11 -34 -32 -58 -21 -23 -26 -32 -12 -19
21 19 31 21 41 13 8 -7 17 -9 20 -5 4 3 7 -1 7 -10 0 -9 5 -19 12 -23 7 -5 9
-2 5 8 -9 24 4 30 20 10 8 -9 11 -11 8 -4 -11 21 15 62 39 63 16 1 17 2 4 6
-25 6 -27 45 -4 73 l21 25 -21 -18 c-25 -21 -41 -23 -24 -2 14 17 10 21 -6 5z"/>
<path d="M1859 1613 l-24 -28 28 24 c25 23 32 31 24 31 -2 0 -14 -12 -28 -27z"/>
<path d="M1771 1614 c0 -11 3 -14 6 -6 3 7 2 16 -1 19 -3 4 -6 -2 -5 -13z"/>
<path d="M1281 1604 c0 -11 3 -14 6 -6 3 7 2 16 -1 19 -3 4 -6 -2 -5 -13z"/>
<path d="M2018 1593 c6 -2 18 -2 25 0 6 3 1 5 -13 5 -14 0 -19 -2 -12 -5z"/>
<path d="M2086 1591 c17 -4 37 -11 45 -15 8 -4 5 0 -5 8 -11 9 -31 16 -45 15
-24 -1 -24 -2 5 -8z"/>
<path d="M1061 1564 c0 -20 6 -37 17 -45 15 -12 15 -12 5 1 -6 8 -13 29 -16
45 l-4 30 -2 -31z"/>
<path d="M1960 1575 c-14 -8 -20 -14 -15 -14 6 0 21 6 35 14 14 8 21 14 15 14
-5 0 -21 -6 -35 -14z"/>
<path d="M1260 1565 c0 -8 2 -15 4 -15 2 0 6 7 10 15 3 8 1 15 -4 15 -6 0 -10
-7 -10 -15z"/>
<path d="M1598 1573 c6 -2 18 -2 25 0 6 3 1 5 -13 5 -14 0 -19 -2 -12 -5z"/>
<path d="M1757 1573 c-4 -3 -7 -16 -6 -27 0 -19 1 -19 10 3 10 24 8 36 -4 24z"/>
<path d="M1846 1565 c-11 -8 -16 -15 -10 -15 5 0 18 7 28 15 11 8 16 15 10 15
-5 0 -18 -7 -28 -15z"/>
<path d="M2150 1566 c0 -2 8 -10 18 -17 15 -13 16 -12 3 4 -13 16 -21 21 -21
13z"/>
<path d="M675 1551 c-6 -11 9 -23 19 -14 9 9 7 23 -3 23 -6 0 -12 -4 -16 -9z"/>
<path d="M1895 1539 c-18 -11 -38 -16 -50 -13 -13 4 -17 3 -10 -4 15 -15 59
-27 51 -13 -9 14 -5 14 31 1 26 -9 27 -9 9 5 -19 15 -19 15 5 16 17 1 19 3 6
6 -9 2 -15 9 -12 14 8 12 5 11 -30 -12z"/>
<path d="M188 1543 c18 -2 45 -2 60 0 15 2 0 4 -33 4 -33 0 -45 -2 -27 -4z"/>
<path d="M1785 1540 c27 -12 35 -12 35 0 0 6 -12 10 -27 9 -25 0 -26 -1 -8 -9z"/>
<path d="M1590 1520 c8 -5 20 -10 25 -10 6 0 3 5 -5 10 -8 5 -19 10 -25 10 -5
0 -3 -5 5 -10z"/>
<path d="M1745 1492 c-7 -19 -6 -22 6 -22 5 0 7 5 3 11 -4 8 1 9 17 4 18 -4
20 -4 10 4 -11 7 -7 10 20 14 29 4 28 4 -8 4 -26 -1 -44 -6 -48 -15z"/>
<path d="M48 1493 c7 -3 16 -2 19 1 4 3 -2 6 -13 5 -11 0 -14 -3 -6 -6z"/>
<path d="M289 1473 l-24 -28 28 24 c15 14 27 26 27 28 0 8 -8 1 -31 -24z"/>
<path d="M680 1491 c0 -17 18 -21 24 -6 3 9 0 15 -9 15 -8 0 -15 -4 -15 -9z"/>
<path d="M1882 1493 c-8 -3 0 -12 20 -23 18 -9 43 -35 55 -56 23 -40 32 -40
12 -1 -17 37 40 -33 62 -76 32 -62 52 -155 44 -211 -9 -71 -35 -125 -95 -196
-28 -34 -66 -92 -84 -128 -37 -73 -75 -115 -119 -131 -41 -16 -116 -13 -170 5
l-47 16 25 30 c94 111 118 280 65 452 -28 88 -34 81 -9 -9 25 -89 26 -237 2
-311 -18 -57 -71 -135 -115 -167 -25 -19 -28 -19 -52 -4 -35 23 -88 21 -120
-4 -14 -11 -26 -24 -26 -29 0 -5 11 2 25 15 30 31 82 33 118 4 35 -27 53 -87
39 -128 -8 -23 -8 -40 -1 -59 16 -39 2 -182 -25 -268 -13 -40 -43 -101 -66
-136 -24 -35 -34 -55 -23 -46 11 10 33 19 49 19 23 1 25 3 7 6 -13 2 -23 6
-23 7 0 2 12 25 27 51 l27 48 12 -37 c7 -20 23 -51 35 -68 l22 -30 -24 6 c-20
6 -21 5 -6 -4 9 -6 22 -8 27 -5 6 3 10 1 10 -4 0 -7 21 -10 53 -10 l52 2 -43
6 c-55 10 -98 51 -117 115 -14 45 -13 54 5 116 22 74 47 104 76 93 16 -6 17
-5 6 9 -11 14 -9 19 10 32 31 22 45 20 52 -9 7 -28 50 -45 68 -27 8 8 3 11
-16 9 -35 -3 -59 28 -36 44 11 8 4 9 -29 6 -35 -4 -51 -13 -83 -49 -32 -34
-39 -38 -33 -19 4 13 6 53 4 90 -1 36 -1 89 -1 118 1 28 -3 64 -9 79 -9 25 -7
31 11 46 19 16 23 16 63 -2 50 -23 152 -26 200 -6 42 17 81 64 117 138 16 32
52 88 80 124 93 118 116 206 86 324 -21 80 -56 141 -117 202 -48 48 -53 51
-77 41z"/>
<path d="M1965 1490 c11 -5 29 -8 40 -8 16 0 15 2 -5 8 -34 11 -60 11 -35 0z"/>
<path d="M88 1483 c7 -3 16 -2 19 1 4 3 -2 6 -13 5 -11 0 -14 -3 -6 -6z"/>
<path d="M344 1462 c-21 -16 -46 -37 -54 -48 -8 -10 -1 -7 15 7 17 15 46 36
65 48 19 11 30 21 24 21 -6 0 -29 -13 -50 -28z"/>
<path d="M1633 1452 c20 -23 37 -47 37 -54 0 -6 3 -9 6 -5 9 9 -32 70 -58 86
-16 10 -11 1 15 -27z"/>
<path d="M2088 1483 c7 -3 16 -2 19 1 4 3 -2 6 -13 5 -11 0 -14 -3 -6 -6z"/>
<path d="M148 1473 c12 -2 32 -2 45 0 12 2 2 4 -23 4 -25 0 -35 -2 -22 -4z"/>
<path d="M763 1459 c-6 -6 -9 -17 -7 -24 3 -7 -4 -31 -15 -54 -12 -22 -21 -45
-21 -52 0 -6 16 19 35 57 31 63 35 100 8 73z"/>
<path d="M1830 1466 c0 -2 7 -7 16 -10 8 -3 12 -2 9 4 -6 10 -25 14 -25 6z"/>
<path d="M1695 1450 l-30 -8 27 -1 c15 0 33 -10 42 -23 9 -12 16 -17 16 -11 0
6 -7 16 -15 23 -8 7 -12 16 -9 21 3 5 4 8 2 8 -2 -1 -16 -5 -33 -9z"/>
<path d="M1799 1423 c19 -18 39 -33 45 -33 6 0 -1 7 -14 17 -14 9 -34 23 -46
32 -11 9 -5 1 15 -16z"/>
<path d="M394 1418 l-29 -33 33 29 c30 28 37 36 29 36 -2 0 -16 -15 -33 -32z"/>
<path d="M1870 1447 c0 -2 19 -17 43 -32 23 -16 37 -22 30 -14 -12 15 -73 53
-73 46z"/>
<path d="M230 1403 c-78 -88 -108 -224 -76 -336 11 -38 35 -80 76 -131 32 -41
73 -103 90 -138 36 -71 71 -112 114 -135 41 -22 144 -19 198 5 43 19 43 19 76
-2 20 -14 30 -26 26 -36 -37 -100 -47 -280 -20 -369 21 -70 20 -106 -3 -157
-28 -63 -66 -87 -124 -81 -29 2 -43 1 -35 -4 17 -11 97 -10 123 1 11 5 14 9 7
9 -8 1 -6 8 7 23 12 12 28 41 37 65 l17 44 27 -48 c28 -48 28 -48 6 -55 -18
-5 -17 -6 8 -7 15 -1 41 -12 58 -26 23 -19 41 -25 78 -25 57 0 149 32 175 60
18 20 18 20 40 0 47 -44 211 -81 229 -51 4 5 -12 7 -35 4 -38 -6 -41 -4 -37
17 4 33 33 48 58 32 11 -7 20 -8 20 -3 0 17 -42 23 -66 10 -13 -7 -24 -21 -24
-31 0 -20 -34 -25 -60 -8 -22 14 1 45 34 45 15 -1 22 3 17 8 -15 15 -63 -2
-68 -23 -7 -25 -21 -25 -50 -1 -27 23 -26 45 11 146 13 39 27 93 29 120 3 28
3 41 0 30 -22 -104 -71 -238 -83 -230 -9 6 -54 137 -69 200 -8 36 -9 37 -10
10 0 -16 14 -74 33 -128 20 -58 29 -97 22 -97 -6 0 -4 -5 4 -10 13 -9 11 -14
-13 -35 -34 -30 -47 -32 -47 -4 0 11 -4 18 -9 14 -5 -3 -12 -1 -16 5 -9 15
-41 12 -55 -5 -9 -11 -16 -12 -26 -4 -17 14 -57 8 -60 -9 -1 -7 0 -8 3 -2 8
17 52 11 63 -9 17 -33 12 -41 -26 -41 -103 0 -202 227 -191 435 6 118 24 188
46 182 9 -3 43 -15 75 -27 33 -12 82 -24 109 -27 42 -5 55 -13 89 -50 23 -24
70 -57 106 -75 60 -30 74 -33 156 -32 63 0 103 6 131 18 43 19 75 44 75 59 0
6 -10 1 -23 -11 -73 -69 -229 -77 -347 -17 -84 43 -132 109 -218 305 -11 24
-11 24 -5 -5 3 -16 21 -63 39 -104 19 -41 32 -76 29 -79 -11 -11 -124 21 -192
54 -90 45 -162 119 -194 202 -33 81 -33 236 -1 340 13 40 28 74 35 76 7 2 29
9 51 16 31 10 40 10 47 -1 5 -9 30 -12 83 -11 42 2 84 -2 95 -8 15 -7 23 -6
35 6 9 8 16 20 16 26 0 6 -8 0 -19 -13 l-18 -23 -27 27 c-14 14 -27 39 -27 54
-1 23 -3 24 -6 6 -2 -12 0 -31 6 -42 10 -18 7 -19 -40 -19 -28 -1 -54 -3 -56
-6 -10 -10 -43 15 -43 32 0 10 -3 13 -8 6 -10 -15 -47 -34 -66 -34 -9 0 -22
16 -30 35 -8 19 -17 35 -20 35 -3 0 1 -15 9 -32 11 -28 11 -37 -1 -61 -27 -51
-54 -179 -54 -253 0 -91 29 -189 76 -249 19 -25 32 -50 29 -54 -8 -13 -89 -31
-140 -31 -55 0 -116 29 -143 67 -11 16 -31 53 -45 83 -15 30 -54 88 -87 128
-72 89 -95 153 -87 248 5 70 48 172 90 218 15 16 27 31 27 32 0 10 -11 1 -40
-33z m781 -1344 c13 -25 -1 -39 -38 -39 -17 0 -23 6 -23 23 0 13 3 27 7 30 13
14 43 6 54 -14z"/>
<path d="M467 1398 c-14 -17 -23 -38 -19 -46 3 -10 9 -3 17 19 6 19 16 33 23
32 7 -2 12 4 12 12 0 22 -6 19 -33 -17z"/>
<path d="M1520 1371 c0 -12 -13 -36 -29 -52 -16 -16 -25 -29 -20 -29 26 0 72
80 55 97 -3 4 -6 -4 -6 -16z"/>
<path d="M1776 1375 c3 -8 10 -15 15 -15 5 0 26 -16 48 -35 42 -38 85 -47 79
-18 -2 12 -16 20 -40 24 -20 3 -53 18 -72 33 -22 16 -33 21 -30 11z"/>
<path d="M1682 1360 c0 -14 2 -19 5 -12 2 6 2 18 0 25 -3 6 -5 1 -5 -13z"/>
<path d="M1720 1358 c-25 -39 -29 -56 -16 -67 20 -17 38 11 34 54 -3 35 -3 36
-18 13z"/>
<path d="M490 1352 c0 -28 17 -62 30 -62 17 0 11 37 -10 61 l-19 24 -1 -23z"/>
<path d="M1918 1363 c7 -3 16 -2 19 1 4 3 -2 6 -13 5 -11 0 -14 -3 -6 -6z"/>
<path d="M400 1345 c-14 -8 -35 -14 -46 -15 -25 0 -49 -24 -39 -40 12 -19 33
-10 76 30 46 43 48 47 9 25z"/>
<path d="M1322 1340 c4 -12 89 -51 108 -50 13 1 -47 29 -62 30 -9 0 -24 8 -34
17 -13 13 -16 14 -12 3z"/>
<path d="M446 1315 c-3 -8 -1 -15 4 -15 6 0 10 7 10 15 0 8 -2 15 -4 15 -2 0
-6 -7 -10 -15z"/>
<path d="M1612 1305 c-32 -27 -70 -32 -92 -12 -12 10 -12 9 -1 -6 10 -12 25
-17 52 -15 21 1 36 5 34 9 -7 10 19 29 52 39 23 7 24 8 6 9 -12 1 -35 -10 -51
-24z"/>
<path d="M462 1250 c2 -18 9 -35 16 -38 18 -6 15 43 -4 59 -14 11 -15 9 -12
-21z"/>
<path d="M1746 1261 c-15 -16 -17 -24 -8 -33 16 -16 35 3 30 32 l-3 22 -19
-21z"/>
<path d="M1812 1230 c2 -18 9 -35 16 -38 18 -6 15 43 -4 59 -14 11 -15 9 -12
-21z"/>
<path d="M390 1231 c-12 -23 -3 -54 14 -48 14 5 21 67 7 67 -6 0 -15 -9 -21
-19z"/>
<path d="M717 1192 c-30 -33 -18 -42 20 -16 50 34 50 34 21 34 -14 0 -32 -8
-41 -18z"/>
<path d="M1450 1200 c0 -5 6 -10 14 -10 7 0 25 -9 40 -21 19 -15 26 -17 26 -6
0 8 -8 21 -18 30 -20 19 -62 23 -62 7z"/>
<path d="M716 1035 c7 -27 6 -29 -9 -16 -10 8 -17 9 -17 3 0 -6 5 -14 11 -18
8 -4 7 -9 -2 -15 -10 -6 -11 -9 -1 -9 6 0 12 -8 12 -19 0 -30 39 -71 66 -71
60 0 86 48 64 116 -14 43 -48 59 -86 42 -21 -10 -27 -9 -35 3 -7 9 -7 5 -3
-16z m99 -35 c0 -15 -6 -26 -16 -28 -19 -3 -31 21 -22 43 9 25 38 13 38 -15z"/>
<path d="M1422 1053 c-18 -7 -42 -58 -42 -90 0 -44 26 -73 64 -73 37 0 58 19
74 68 8 24 8 32 -1 32 -7 0 -4 5 6 11 24 14 21 28 -5 22 -19 -5 -21 -3 -10 8
6 7 12 18 12 24 0 5 -4 4 -9 -4 -8 -12 -14 -13 -36 -3 -28 13 -33 13 -53 5z
m26 -50 c-3 -30 -25 -42 -34 -19 -9 22 2 46 21 46 12 0 15 -8 13 -27z"/>
<path d="M1068 913 c7 -3 16 -2 19 1 4 3 -2 6 -13 5 -11 0 -14 -3 -6 -6z"/>
<path d="M1284 739 c4 -116 56 -191 120 -175 31 8 44 43 22 64 -12 12 -19 13
-27 5 -8 -8 -6 -11 6 -10 24 3 28 -14 11 -38 -12 -16 -19 -18 -41 -10 -16 6
-33 19 -39 30 -6 11 -14 22 -17 25 -11 9 -22 54 -30 120 l-8 65 3 -76z"/>
<path d="M560 400 c23 -14 -1 -45 -33 -43 -20 1 -27 -4 -29 -20 -2 -12 -12
-23 -22 -25 -14 -3 -17 0 -13 12 11 27 -2 18 -18 -14 -9 -17 -14 -51 -13 -82
l1 -53 6 60 c5 53 9 60 31 65 14 3 29 15 35 26 6 11 16 19 23 16 16 -5 52 26
52 45 0 18 21 17 48 -3 19 -13 21 -18 10 -32 -10 -14 -10 -15 2 -5 11 10 18 9
34 -5 11 -9 7 -1 -9 19 -31 38 -52 49 -95 49 -20 0 -22 -2 -10 -10z"/>
<path d="M504 384 c-18 -14 -18 -14 6 -3 31 14 36 19 24 19 -6 0 -19 -7 -30
-16z"/>
<path d="M1700 390 c35 -24 54 -31 30 -11 -14 11 -29 21 -35 21 -5 0 -3 -5 5
-10z"/>
<path d="M587 349 c7 -7 15 -10 18 -7 3 3 -2 9 -12 12 -14 6 -15 5 -6 -5z"/>
<path d="M1630 350 c-9 -6 -10 -10 -3 -10 6 0 15 5 18 10 8 12 4 12 -15 0z"/>
<path d="M1722 320 c2 -8 15 -17 29 -19 13 -1 28 -8 32 -15 5 -7 7 -3 5 9 -3
13 -10 19 -22 17 -9 -2 -25 3 -33 10 -14 11 -15 11 -11 -2z"/>
<path d="M903 313 c9 -2 23 -2 30 0 6 3 -1 5 -18 5 -16 0 -22 -2 -12 -5z"/>
<path d="M1330 313 c8 -3 24 -10 35 -15 20 -9 20 -9 1 6 -11 9 -27 16 -35 15
-14 0 -14 -1 -1 -6z"/>
<path d="M1793 230 c0 -25 2 -35 4 -22 2 12 2 32 0 45 -2 12 -4 2 -4 -23z"/>
<path d="M1776 155 c-11 -46 -45 -95 -80 -116 -17 -10 -26 -19 -19 -19 35 0
122 119 111 152 -3 7 -8 -1 -12 -17z"/>
<path d="M440 162 c0 -23 37 -86 67 -112 l28 -25 -27 30 c-15 17 -36 50 -47
75 -11 25 -21 39 -21 32z"/>
<path d="M1035 100 c-3 -6 1 -7 9 -4 18 7 21 14 7 14 -6 0 -13 -4 -16 -10z"/>
<path d="M1182 96 c7 -8 15 -12 17 -11 5 6 -10 25 -20 25 -5 0 -4 -6 3 -14z"/>
<path d="M710 40 c-18 -12 -2 -12 25 0 13 6 15 9 5 9 -8 0 -22 -4 -30 -9z"/>
</g>
</svg>
